<svg width="25" height="24" viewBox="0 0 25 24" fill="none" xmlns="http://www.w3.org/2000/svg">
<path d="M4.17847 3.60469L7.53809 6.96431C8.2097 6.26802 9.01396 5.71328 9.90341 5.33282C10.7929 4.95235 11.7495 4.75385 12.7169 4.74904C13.6843 4.74423 14.6429 4.93319 15.5361 5.30479C16.4292 5.67639 17.239 6.2231 17.9175 6.91267L21.274 3.5515C20.1543 2.42186 18.8212 1.52613 17.3522 0.91643C15.8831 0.306728 14.3075 -0.00478098 12.717 2.42385e-05C11.1265 0.00482946 9.55276 0.325853 8.08743 0.94442C6.62211 1.56299 5.29441 2.46675 4.18156 3.60314L4.17847 3.60469Z" fill="#F0432C"/>
<path d="M4.22246 20.4653L7.57898 17.1088C6.90756 16.4322 6.3762 15.6298 6.01534 14.7476C5.65447 13.8654 5.47119 12.9206 5.47599 11.9675C5.48078 11.0143 5.67357 10.0714 6.04329 9.1929C6.41302 8.31435 6.95243 7.51737 7.63062 6.8476L4.27204 3.48849C3.15289 4.59944 2.26372 5.9201 1.65536 7.37495C1.04701 8.8298 0.731414 10.3903 0.726618 11.9672C0.721822 13.5441 1.02792 15.1065 1.62741 16.565C2.22691 18.0236 3.10803 19.3496 4.2204 20.4673L4.22246 20.4653Z" fill="#FFBF00"/>
<path d="M15.125 14.376V14.4257H15.1747L15.125 14.376Z" fill="#24AA49"/>
<path d="M12.7248 24C14.3038 24.002 15.8676 23.6914 17.326 23.0861C18.7844 22.4807 20.1085 21.5927 21.222 20.4731L17.8629 17.1129C17.1896 17.7902 16.389 18.3277 15.5072 18.6945C14.6254 19.0613 13.6798 19.2501 12.7248 19.2501C11.7698 19.2501 10.8242 19.0613 9.9424 18.6945C9.06062 18.3277 8.26005 17.7902 7.58675 17.1129L4.23022 20.4694C5.34308 21.5894 6.66664 22.478 8.12457 23.0839C9.5825 23.6899 11.146 24.0012 12.7248 24Z" fill="#24AA49"/>
<path d="M24.5429 9.65063L15.1746 9.66354V14.4257H19.6072C19.2403 15.4557 18.6456 16.3897 17.8675 17.1579L21.2266 20.5175C22.6331 19.1204 23.6719 17.397 24.2505 15.5009C24.8292 13.6048 24.9296 11.595 24.5429 9.65063Z" fill="#3384FC"/>
</svg>
