<svg width="41" height="41" viewBox="0 0 41 41" fill="none" xmlns="http://www.w3.org/2000/svg">
<circle opacity="0.5" cx="20.4603" cy="20.54" r="20.0746" fill="#2F74FA"/>
<path fill-rule="evenodd" clip-rule="evenodd" d="M20.4599 11.5913C23.9611 11.5913 26.7993 14.4295 26.7993 17.9306V18.3125C26.7993 19.7133 26.3616 21.0792 25.5474 22.2191L20.4725 29.3239C20.4663 29.3325 20.4536 29.3325 20.4474 29.3239L15.3725 22.2191C14.5583 21.0792 14.1206 19.7133 14.1206 18.3125V17.9306C14.1206 14.4295 16.9588 11.5913 20.4599 11.5913ZM23.2441 17.333C23.0507 16.4857 22.482 15.7726 21.699 15.3955C20.916 15.0184 20.0039 15.0184 19.2209 15.3955C18.4379 15.7726 17.8692 16.4857 17.6758 17.333C17.4824 18.1803 17.6853 19.0695 18.2272 19.749C18.7691 20.4285 19.5909 20.8242 20.4599 20.8242C21.329 20.8242 22.1508 20.4285 22.6927 19.749C23.2345 19.0695 23.4375 18.1803 23.2441 17.333Z" fill="white"/>
<path d="M25.5474 22.2191L26.768 23.0909L25.5474 22.2191ZM20.4725 29.3239L19.2519 28.4521L19.2519 28.4521L20.4725 29.3239ZM20.4474 29.3239L19.2268 30.1958L19.2268 30.1958L20.4474 29.3239ZM15.3725 22.2191L14.1519 23.0909L14.1519 23.091L15.3725 22.2191ZM21.699 15.3955L22.3498 14.044V14.044L21.699 15.3955ZM23.2441 17.333L24.7065 16.9992V16.9992L23.2441 17.333ZM17.6758 17.333L16.2134 16.9992L17.6758 17.333ZM22.6927 19.749L23.8654 20.6842L22.6927 19.749ZM28.2993 17.9306C28.2993 13.6011 24.7895 10.0913 20.4599 10.0913V13.0913C23.1326 13.0913 25.2993 15.258 25.2993 17.9306L28.2993 17.9306ZM28.2993 18.3125V17.9306L25.2993 17.9306V18.3125L28.2993 18.3125ZM26.768 23.0909C27.7639 21.6966 28.2993 20.026 28.2993 18.3125L25.2993 18.3125C25.2993 19.4007 24.9593 20.4617 24.3268 21.3472L26.768 23.0909ZM21.6931 30.1958L26.768 23.0909L24.3268 21.3472L19.2519 28.4521L21.6931 30.1958ZM19.2268 30.1958C19.8312 31.0419 21.0887 31.042 21.6931 30.1958L19.2519 28.4521C19.844 27.6231 21.0759 27.6232 21.668 28.4521L19.2268 30.1958ZM14.1519 23.091L19.2268 30.1958L21.668 28.4521L16.5931 21.3472L14.1519 23.091ZM12.6206 18.3125C12.6206 20.026 13.156 21.6966 14.1519 23.0909L16.5931 21.3472C15.9606 20.4617 15.6206 19.4007 15.6206 18.3125H12.6206ZM12.6206 17.9306V18.3125H15.6206V17.9306H12.6206ZM20.4599 10.0913C16.1304 10.0913 12.6206 13.6011 12.6206 17.9306H15.6206C15.6206 15.258 17.7873 13.0913 20.4599 13.0913V10.0913ZM21.0482 16.7469C21.4199 16.926 21.6899 17.2645 21.7817 17.6668L24.7065 16.9992C24.4115 15.7069 23.5441 14.6192 22.3498 14.044L21.0482 16.7469ZM19.8717 16.7469C20.2434 16.5679 20.6765 16.5679 21.0482 16.7469L22.3498 14.044C21.1556 13.4689 19.7643 13.4689 18.57 14.044L19.8717 16.7469ZM19.1382 17.6668C19.23 17.2645 19.5 16.926 19.8717 16.7469L18.57 14.044C17.3757 14.6192 16.5083 15.7069 16.2134 16.9992L19.1382 17.6668ZM19.4 18.8138C19.1427 18.4912 19.0464 18.069 19.1382 17.6668L16.2134 16.9992C15.9184 18.2915 16.228 19.6479 17.0545 20.6842L19.4 18.8138ZM20.4599 19.3242C20.0474 19.3242 19.6572 19.1363 19.4 18.8138L17.0545 20.6842C17.8809 21.7206 19.1344 22.3242 20.4599 22.3242V19.3242ZM21.5199 18.8138C21.2627 19.1363 20.8725 19.3242 20.4599 19.3242V22.3242C21.7855 22.3242 23.0389 21.7206 23.8654 20.6842L21.5199 18.8138ZM21.7817 17.6668C21.8735 18.069 21.7772 18.4912 21.5199 18.8138L23.8654 20.6842C24.6919 19.6479 25.0015 18.2915 24.7065 16.9992L21.7817 17.6668Z" fill="white"/>
</svg>
