<svg width="23" height="21" viewBox="0 0 23 21" fill="none" xmlns="http://www.w3.org/2000/svg">
<path d="M19.5156 4.03457H15.5808V2.38149C15.5808 1.52002 14.8823 0.821533 14.0209 0.821533H9.03832C8.17685 0.821533 7.47836 1.52002 7.47836 2.38149V4.03457H3.54356C1.84391 4.03457 0.470215 5.40826 0.470215 7.10791V17.7482C0.470215 19.4478 1.84391 20.8215 3.54356 20.8215H19.5389C21.2386 20.8215 22.6122 19.4478 22.6122 17.7482V7.10791C22.589 5.40826 21.2153 4.03457 19.5156 4.03457ZM8.66579 2.38149C8.66579 2.17194 8.82877 2.00896 9.03832 2.00896H14.0209C14.2304 2.00896 14.3934 2.17194 14.3934 2.38149V4.03457H8.66579V2.38149ZM3.54356 5.222H19.5389C20.5633 5.222 21.4248 6.06018 21.4248 7.10791V9.48277C19.2595 10.1347 16.7217 10.5538 14.0674 10.7168V10.2045C14.0674 9.52933 13.5086 8.97054 12.8334 8.97054H10.2723C9.59711 8.97054 9.03832 9.52933 9.03832 10.2045V10.7168C6.38407 10.5538 3.84623 10.1347 1.68092 9.48277V7.10791C1.65764 6.06018 2.49583 5.222 3.54356 5.222ZM12.8567 10.2045V12.463C12.8567 12.4863 12.8334 12.5095 12.8101 12.5095L10.2257 12.463L10.2723 10.1347L12.8567 10.2045ZM19.5156 19.6108H3.54356C2.51911 19.6108 1.65764 18.7726 1.65764 17.7249V10.7168C3.84623 11.3454 6.36079 11.7412 9.01503 11.9042V12.463C9.01503 13.1382 9.57382 13.697 10.249 13.697H12.7636C13.4388 13.697 13.9976 13.1382 13.9976 12.463V11.9042C16.6751 11.7412 19.2129 11.3454 21.4015 10.7168V17.7482C21.4015 18.7726 20.5633 19.6108 19.5156 19.6108Z" fill="#1A3D7C"/>
</svg>
