<svg width="22" height="25" viewBox="0 0 22 25" fill="none" xmlns="http://www.w3.org/2000/svg">
<path d="M11 18.3931C11.2108 18.3931 11.3867 18.3276 11.5275 18.1965C11.6684 18.0655 11.7388 17.9023 11.7388 17.7071V11.3087C11.7388 11.1135 11.6679 10.9504 11.5261 10.8193C11.3842 10.6883 11.2084 10.6223 10.9985 10.6213C10.7887 10.6204 10.6133 10.6864 10.4725 10.8193C10.3316 10.9522 10.2612 11.1154 10.2612 11.3087V17.7071C10.2612 17.9014 10.3321 18.0646 10.4739 18.1965C10.6158 18.3285 10.7916 18.3945 11.0015 18.3945M11 8.45327C11.2581 8.45327 11.4743 8.37216 11.6487 8.20993C11.8221 8.04771 11.9088 7.84698 11.9088 7.60777C11.9088 7.36763 11.8216 7.16645 11.6472 7.00423C11.4729 6.842 11.2571 6.76134 11 6.76226C10.7429 6.76318 10.5271 6.84429 10.3528 7.0056C10.1784 7.16691 10.0912 7.36809 10.0912 7.60914C10.0912 7.85019 10.1784 8.05091 10.3528 8.21131C10.5271 8.3717 10.7429 8.45236 11 8.45327ZM11 24.7337C10.866 24.7337 10.7247 24.7223 10.5759 24.6994C10.4272 24.6765 10.2892 24.6421 10.1622 24.5963C7.2531 23.5652 4.94152 21.8164 3.22741 19.35C1.5133 16.8836 0.65625 14.2137 0.65625 11.3404V5.45207C0.65625 4.98097 0.80057 4.55661 1.08921 4.179C1.37686 3.80138 1.74973 3.5278 2.20781 3.35824L10.1651 0.60862C10.4528 0.511467 10.7311 0.462891 11 0.462891C11.2689 0.462891 11.5477 0.511467 11.8364 0.60862L19.7922 3.35824C20.2493 3.52871 20.6221 3.8023 20.9108 4.179C21.1994 4.55661 21.3437 4.98097 21.3437 5.45207V11.3404C21.3437 14.2137 20.4867 16.8836 18.7726 19.35C17.0585 21.8164 14.7474 23.5652 11.8393 24.5963C11.7103 24.6421 11.5719 24.6765 11.4241 24.6994C11.2763 24.7223 11.135 24.7337 11 24.7337ZM11 23.4387C13.5613 22.6825 15.6793 21.1702 17.354 18.9018C19.0287 16.6334 19.8661 14.1129 19.8661 11.3404V5.42595C19.8661 5.24997 19.8139 5.09141 19.7094 4.95026C19.606 4.80912 19.4592 4.70371 19.2691 4.63406L11.3133 1.88444C11.2187 1.84778 11.1143 1.82945 11 1.82945C10.8857 1.82945 10.7813 1.84778 10.6867 1.88444L2.73091 4.63406C2.54078 4.70371 2.394 4.80912 2.29056 4.95026C2.18614 5.09141 2.13393 5.24997 2.13393 5.42595V11.3404C2.13393 14.1129 2.97128 16.6334 4.64598 18.9018C6.32068 21.1702 8.43869 22.6825 11 23.4387Z" fill="#2F74FA"/>
<path d="M11 18.3931C11.2108 18.3931 11.3867 18.3276 11.5275 18.1965C11.6684 18.0655 11.7388 17.9023 11.7388 17.7071V11.3087C11.7388 11.1135 11.6679 10.9504 11.5261 10.8193C11.3842 10.6883 11.2084 10.6223 10.9985 10.6213C10.7887 10.6204 10.6133 10.6864 10.4725 10.8193C10.3316 10.9522 10.2612 11.1154 10.2612 11.3087V17.7071C10.2612 17.9014 10.3321 18.0646 10.4739 18.1965C10.6158 18.3285 10.7916 18.3945 11.0015 18.3945M11 8.45327C11.2581 8.45327 11.4743 8.37216 11.6487 8.20993C11.8221 8.04771 11.9088 7.84698 11.9088 7.60777C11.9088 7.36763 11.8216 7.16645 11.6472 7.00423C11.4729 6.842 11.2571 6.76134 11 6.76226C10.7429 6.76318 10.5271 6.84429 10.3528 7.0056C10.1784 7.16691 10.0912 7.36809 10.0912 7.60914C10.0912 7.85019 10.1784 8.05091 10.3528 8.21131C10.5271 8.3717 10.7429 8.45236 11 8.45327ZM11 24.7337C10.866 24.7337 10.7247 24.7223 10.5759 24.6994C10.4272 24.6765 10.2892 24.6421 10.1622 24.5963C7.2531 23.5652 4.94152 21.8164 3.22741 19.35C1.5133 16.8836 0.65625 14.2137 0.65625 11.3404V5.45207C0.65625 4.98097 0.80057 4.55661 1.08921 4.179C1.37686 3.80138 1.74973 3.5278 2.20781 3.35824L10.1651 0.60862C10.4528 0.511467 10.7311 0.462891 11 0.462891C11.2689 0.462891 11.5477 0.511467 11.8364 0.60862L19.7922 3.35824C20.2493 3.52871 20.6221 3.8023 20.9108 4.179C21.1994 4.55661 21.3437 4.98097 21.3437 5.45207V11.3404C21.3437 14.2137 20.4867 16.8836 18.7726 19.35C17.0585 21.8164 14.7474 23.5652 11.8393 24.5963C11.7103 24.6421 11.5719 24.6765 11.4241 24.6994C11.2763 24.7223 11.135 24.7337 11 24.7337ZM11 23.4387C13.5613 22.6825 15.6793 21.1702 17.354 18.9018C19.0287 16.6334 19.8661 14.1129 19.8661 11.3404V5.42595C19.8661 5.24997 19.8139 5.09141 19.7094 4.95026C19.606 4.80912 19.4592 4.70371 19.2691 4.63406L11.3133 1.88444C11.2187 1.84778 11.1143 1.82945 11 1.82945C10.8857 1.82945 10.7813 1.84778 10.6867 1.88444L2.73091 4.63406C2.54078 4.70371 2.394 4.80912 2.29056 4.95026C2.18614 5.09141 2.13393 5.24997 2.13393 5.42595V11.3404C2.13393 14.1129 2.97128 16.6334 4.64598 18.9018C6.32068 21.1702 8.43869 22.6825 11 23.4387Z" stroke="#2F74FA" stroke-width="0.3"/>
</svg>
