<svg width="111" height="98" viewBox="0 0 111 98" fill="none" xmlns="http://www.w3.org/2000/svg">
<path d="M53.1999 2.67749C54.0632 0.650152 56.9368 0.650153 57.8001 2.67749L70.3929 32.2487C70.9168 33.479 72.096 34.3033 73.4315 34.3727L107.569 36.1455C109.907 36.2669 110.811 39.2458 108.935 40.6456L82.8927 60.083C81.7254 60.9543 81.2197 62.4574 81.6231 63.857L90.2615 93.8349C90.887 96.0056 88.5409 97.8269 86.593 96.6827L57.2727 79.4594C56.1783 78.8166 54.8217 78.8166 53.7273 79.4595L24.407 96.6827C22.4591 97.8269 20.113 96.0056 20.7385 93.8349L29.3769 63.857C29.7803 62.4574 29.2746 60.9543 28.1073 60.083L2.06486 40.6456C0.189342 39.2458 1.09338 36.2669 3.43055 36.1455L37.5685 34.3727C38.904 34.3033 40.0832 33.479 40.6071 32.2487L53.1999 2.67749Z" fill="#FBBA1D" stroke="#FBBA1D"/>
</svg>
