<svg width="11" height="12" viewBox="0 0 11 12" fill="none" xmlns="http://www.w3.org/2000/svg">
<path fill-rule="evenodd" clip-rule="evenodd" d="M5.49987 0.177124C4.81749 0.177124 4.16306 0.448198 3.68054 0.930714C3.19803 1.41323 2.92695 2.06766 2.92695 2.75004C2.92695 3.43242 3.19803 4.08685 3.68054 4.56937C4.16306 5.05188 4.81749 5.32296 5.49987 5.32296C6.18225 5.32296 6.83668 5.05188 7.31919 4.56937C7.80171 4.08685 8.07278 3.43242 8.07278 2.75004C8.07278 2.06766 7.80171 1.41323 7.31919 0.930714C6.83668 0.448198 6.18225 0.177124 5.49987 0.177124ZM3.73945 2.75004C3.73945 2.28315 3.92492 1.83538 4.25507 1.50524C4.58521 1.1751 5.03298 0.989624 5.49987 0.989624C5.96676 0.989624 6.41453 1.1751 6.74467 1.50524C7.07481 1.83538 7.26028 2.28315 7.26028 2.75004C7.26028 3.21693 7.07481 3.6647 6.74467 3.99484C6.41453 4.32499 5.96676 4.51046 5.49987 4.51046C5.03298 4.51046 4.58521 4.32499 4.25507 3.99484C3.92492 3.6647 3.73945 3.21693 3.73945 2.75004ZM5.49987 6.13546C4.24699 6.13546 3.09216 6.42037 2.23687 6.90137C1.39403 7.37587 0.760284 8.09412 0.760284 8.97921V9.03446C0.759743 9.66387 0.759201 10.4536 1.45199 11.018C1.7927 11.2954 2.26991 11.4931 2.91449 11.6231C3.56016 11.7542 4.40245 11.823 5.49987 11.823C6.59728 11.823 7.43903 11.7542 8.08578 11.6231C8.73037 11.4931 9.20704 11.2954 9.54828 11.018C10.2411 10.4536 10.24 9.66387 10.2395 9.03446V8.97921C10.2395 8.09412 9.6057 7.37587 8.76341 6.90137C7.90758 6.42037 6.75328 6.13546 5.49987 6.13546ZM1.57278 8.97921C1.57278 8.51825 1.9097 8.01775 2.63499 7.60987C3.34783 7.20904 4.35966 6.94796 5.50041 6.94796C6.64008 6.94796 7.65191 7.20904 8.36474 7.60987C9.09058 8.01775 9.42695 8.51825 9.42695 8.97921C9.42695 9.68771 9.40528 10.0864 9.03478 10.3875C8.83437 10.5511 8.49853 10.7109 7.92437 10.8268C7.35183 10.9427 6.56912 11.0105 5.49987 11.0105C4.43062 11.0105 3.64737 10.9427 3.07537 10.8268C2.5012 10.7109 2.16537 10.5511 1.96495 10.3881C1.59445 10.0864 1.57278 9.68771 1.57278 8.97921Z" fill="black"/>
</svg>
